<svg width="1195" height="556" viewBox="0 0 1195 556" fill="none" xmlns="http://www.w3.org/2000/svg">
<g clip-path="url(#clip0_4_7)">
<path d="M258.845 240.394C258.845 240.394 258.384 370.066 258.845 370.527C259.307 370.988 277.06 370.527 277.06 370.527V240.394H258.845Z" fill="#B4774E"/>
<path d="M330.56 277.629H277.06V282.983H330.56V277.629Z" fill="#B4774E"/>
<path d="M351.838 240.544L330.182 278.084H337.449L358.655 240.544H351.838Z" fill="#B4774E"/>
<path d="M320.229 282.977L370.287 370.521H391.794L336.837 276.251L320.229 282.977Z" fill="#B4774E"/>
<path d="M407.754 370.521L481.789 240.526H484.295L558.384 370.497H537.147L477.514 265.932H473.701L414.529 370.521H407.754Z" fill="#B4774E"/>
<path d="M446.318 314.33H506.377L511.965 319.912H441.162L446.318 314.33Z" fill="#B4774E"/>
<path d="M575.034 252.456L580.891 262.093C580.891 262.093 593.35 241.161 627.736 241.963C666.024 244.317 664.363 260.655 663.272 265.992C662.181 271.322 660.634 276.545 652.366 277.461H616.716L613.424 283.121H651.79C651.79 283.121 678.525 283.444 679.137 314.486C679.137 325.111 678.141 343.312 663.752 354.32C662.067 355.698 651.67 367.55 625.757 367.55C621.5 367.55 592.955 367.395 576.191 347.211C574.2 350.727 571.214 356.386 571.214 356.386C571.214 356.386 594.484 373.743 633.366 372.216C672.248 370.689 684.802 352.416 688.166 348.133C691.536 343.851 699.57 329.633 696.74 309.216C693.91 288.798 679.976 279.701 667.655 279.012C667.649 278.353 667.655 277.736 667.655 277.736C667.655 277.736 673.854 277.713 678.027 272.855C682.2 267.998 681.853 262.039 681.853 262.039C681.853 262.039 681.931 251.144 668.8 245.179C655.675 239.214 645.645 238.106 632.712 237.268C619.773 236.417 591.642 239.549 575.034 252.456Z" fill="#B4774E"/>
<path d="M720.267 240.472V370.521H738.638V240.813L720.267 240.472Z" fill="#B4774E"/>
<path d="M738.638 277.167H845.301V282.33H737.145L738.638 277.167Z" fill="#B4774E"/>
<path d="M861.027 240.586H843.004V370.527H861.027V240.586Z" fill="#B4774E"/>
<path d="M998.227 342.653C998.227 342.653 999.492 327.285 988.352 319.026C984.448 316.391 973.998 314.552 968.836 314.552C963.667 314.552 906.493 314.552 906.493 314.552V240.586H888.811V370.527H962.175C962.175 370.527 987.434 370.641 993.52 361.124C999.606 351.607 998.227 342.653 998.227 342.653ZM980.203 347.241C979.976 364.676 964.591 365.017 964.591 365.017H906.499V320.062C906.499 320.062 940.482 320.062 960.574 320.062C980.431 320.865 980.431 329.812 980.203 347.241Z" fill="#B4774E"/>
<path d="M442.793 200.763C440.694 200.763 438.902 200.47 437.409 199.889C435.916 199.308 434.777 198.464 433.991 197.35C433.206 196.236 432.81 194.888 432.81 193.295C432.81 191.708 433.206 190.354 433.991 189.246C434.777 188.132 435.916 187.282 437.409 186.695C438.902 186.108 440.694 185.808 442.793 185.808C442.823 185.808 442.889 185.808 442.979 185.808C443.069 185.808 443.159 185.808 443.249 185.808C443.338 185.808 443.392 185.808 443.41 185.808C445.509 185.808 447.296 186.102 448.783 186.695C450.269 187.288 451.403 188.138 452.188 189.246C452.974 190.36 453.369 191.708 453.369 193.295C453.369 194.864 452.98 196.212 452.2 197.332C451.421 198.452 450.299 199.302 448.831 199.883C447.362 200.464 445.587 200.757 443.506 200.757C443.47 200.757 443.404 200.757 443.296 200.757C443.189 200.757 443.087 200.757 442.991 200.757C442.895 200.757 442.829 200.763 442.793 200.763ZM443.063 198.847C443.093 198.847 443.159 198.847 443.261 198.847C444.933 198.829 446.342 198.613 447.487 198.194C448.633 197.775 449.508 197.152 450.108 196.325C450.707 195.499 451.007 194.481 451.007 193.271C451.007 192.079 450.701 191.067 450.096 190.252C449.49 189.432 448.615 188.815 447.476 188.384C446.336 187.959 444.945 187.743 443.308 187.743C443.291 187.743 443.255 187.743 443.201 187.743C443.141 187.743 443.099 187.743 443.063 187.743C441.372 187.743 439.945 187.953 438.776 188.372C437.601 188.791 436.713 189.408 436.108 190.228C435.502 191.049 435.196 192.073 435.196 193.295C435.196 194.523 435.508 195.547 436.132 196.361C436.755 197.182 437.655 197.799 438.824 198.218C439.993 198.643 441.408 198.847 443.063 198.847ZM441.959 202.56V184.096H444.244V202.56H441.959Z" fill="#B4774E"/>
<path d="M460.318 201.919V184.73H462.752V197.99L472.927 184.73H475.188V201.919H472.777V188.683L462.579 201.919H460.318Z" fill="#B4774E"/>
<path d="M482.91 202.117C482.664 202.117 482.418 202.099 482.172 202.069C481.927 202.033 481.657 201.985 481.363 201.919L481.537 199.733C481.801 199.799 482.065 199.829 482.322 199.829C483.042 199.829 483.617 199.542 484.043 198.967C484.469 198.392 484.787 197.529 484.99 196.361C485.194 195.2 485.332 193.732 485.398 191.965L485.668 184.718H497.785V201.907H495.375V186.216L495.963 186.857H487.239L487.778 186.192L487.581 191.887C487.533 193.588 487.419 195.08 487.239 196.355C487.059 197.631 486.789 198.697 486.429 199.548C486.07 200.398 485.608 201.039 485.038 201.464C484.475 201.901 483.761 202.117 482.91 202.117Z" fill="#B4774E"/>
<path d="M513.86 190.72C515.892 190.72 517.457 191.175 518.554 192.085C519.652 192.995 520.203 194.349 520.203 196.152C520.203 198.05 519.61 199.488 518.422 200.464C517.235 201.44 515.568 201.925 513.422 201.925H506.317V184.736H508.751V190.726H513.86V190.72ZM513.32 199.979C514.747 199.979 515.838 199.661 516.6 199.021C517.361 198.38 517.745 197.439 517.745 196.194C517.745 194.984 517.367 194.092 516.612 193.517C515.856 192.942 514.759 192.654 513.32 192.654H508.745V199.973H513.32V199.979Z" fill="#B4774E"/>
<path d="M527.014 201.919V184.73H529.029L536.745 197.721H535.666L543.286 184.73H545.301L545.325 201.919H542.963L542.939 188.438H543.502L536.715 199.829H535.582L528.747 188.438H529.358V201.919H527.014Z" fill="#B4774E"/>
<path d="M562.826 202.117C562.581 202.117 562.335 202.099 562.089 202.069C561.843 202.033 561.573 201.985 561.28 201.919L561.453 199.733C561.717 199.799 561.981 199.829 562.239 199.829C562.958 199.829 563.534 199.542 563.96 198.967C564.385 198.392 564.703 197.529 564.907 196.361C565.111 195.2 565.249 193.732 565.315 191.965L565.584 184.718H577.702V201.907H575.291V186.216L575.879 186.857H567.155L567.695 186.192L567.497 191.887C567.449 193.588 567.335 195.08 567.155 196.355C566.975 197.631 566.706 198.697 566.346 199.548C565.986 200.398 565.524 201.039 564.955 201.464C564.391 201.901 563.678 202.117 562.826 202.117Z" fill="#B4774E"/>
<path d="M583.847 201.919L591.642 184.73H594.076L601.894 201.919H599.31L592.355 186.108H593.338L586.383 201.919H583.847ZM587.163 197.619L587.828 195.655H597.511L598.225 197.619H587.163Z" fill="#B4774E"/>
<path d="M605.677 205.675L605.701 199.781H624.432V205.675H622.148V201.919H607.986L607.962 205.675H605.677ZM619.468 200.763V186.863H611.919L611.793 190.474C611.745 191.684 611.667 192.846 611.559 193.96C611.451 195.074 611.301 196.074 611.104 196.966C610.906 197.859 610.63 198.589 610.282 199.164C609.928 199.739 609.485 200.087 608.945 200.218L606.289 199.775C606.931 199.823 607.458 199.608 607.872 199.122C608.292 198.637 608.615 197.961 608.855 197.086C609.095 196.212 609.269 195.188 609.383 194.02C609.497 192.852 609.581 191.594 609.629 190.252L609.803 184.724H621.896V200.757H619.468V200.763Z" fill="#B4774E"/>
<path d="M638.714 202.117C637.401 202.117 636.183 201.895 635.062 201.452C633.941 201.009 632.97 200.392 632.148 199.596C631.327 198.799 630.691 197.871 630.23 196.811C629.774 195.745 629.54 194.583 629.54 193.325C629.54 192.067 629.768 190.905 630.23 189.839C630.691 188.773 631.327 187.845 632.148 187.054C632.97 186.258 633.935 185.641 635.05 185.198C636.166 184.754 637.389 184.533 638.714 184.533C640.027 184.533 641.238 184.748 642.353 185.186C643.468 185.617 644.434 186.234 645.255 187.024C646.076 187.821 646.706 188.749 647.162 189.821C647.611 190.893 647.839 192.061 647.839 193.319C647.839 194.595 647.611 195.768 647.162 196.829C646.712 197.889 646.076 198.823 645.255 199.614C644.434 200.41 643.468 201.021 642.353 201.458C641.238 201.901 640.027 202.117 638.714 202.117ZM638.69 199.931C639.655 199.931 640.548 199.769 641.358 199.44C642.167 199.11 642.875 198.649 643.474 198.05C644.074 197.451 644.541 196.751 644.877 195.948C645.213 195.146 645.381 194.271 645.381 193.319C645.381 192.373 645.213 191.498 644.877 190.702C644.541 189.905 644.074 189.21 643.474 188.599C642.875 187.995 642.173 187.527 641.358 187.198C640.548 186.869 639.655 186.707 638.69 186.707C637.736 186.707 636.861 186.869 636.046 187.198C635.236 187.527 634.523 187.995 633.917 188.599C633.312 189.204 632.838 189.905 632.502 190.702C632.166 191.498 631.998 192.367 631.998 193.319C631.998 194.271 632.166 195.146 632.502 195.948C632.838 196.751 633.312 197.451 633.917 198.05C634.523 198.649 635.23 199.11 636.046 199.44C636.855 199.769 637.736 199.931 638.69 199.931Z" fill="#B4774E"/>
<path d="M664.771 201.919V184.73H667.181V201.919H664.771ZM666.444 194.355V192.193H672.026V194.355H666.444ZM672.319 193.594L670.059 193.253L676.229 184.73H678.861L672.319 193.594ZM676.349 201.919L670.107 193.445L672.098 192.217L679.155 201.913H676.349V201.919Z" fill="#B4774E"/>
<path d="M685.42 201.919V184.73H692.819C694.689 184.73 696.152 185.108 697.219 185.862C698.287 186.617 698.82 187.713 698.82 189.15C698.82 190.558 698.311 191.636 697.297 192.379C696.284 193.121 694.947 193.499 693.292 193.499L693.736 192.762C695.655 192.762 697.124 193.145 698.149 193.906C699.174 194.666 699.684 195.774 699.684 197.236C699.684 198.709 699.144 199.859 698.071 200.686C696.998 201.512 695.403 201.925 693.292 201.925H685.42V201.919ZM687.854 192.295H692.651C693.85 192.295 694.761 192.055 695.391 191.582C696.02 191.109 696.338 190.414 696.338 189.498C696.338 188.563 696.02 187.863 695.391 187.384C694.761 186.91 693.844 186.671 692.651 186.671H687.854V192.295ZM687.854 199.979H693.238C694.551 199.979 695.535 199.739 696.2 199.254C696.866 198.769 697.195 198.032 697.195 197.032C697.195 196.032 696.866 195.307 696.2 194.846C695.535 194.391 694.551 194.157 693.238 194.157H687.854V199.979Z" fill="#B4774E"/>
<path d="M704.57 201.919L712.365 184.73H714.799L722.617 201.919H720.039L713.084 186.108H714.067L707.112 201.919H704.57ZM707.886 197.619L708.551 195.655H718.234L718.948 197.619H707.886Z" fill="#B4774E"/>
<path d="M732.27 201.919V186.228L732.882 186.869H726.395V184.73H740.58V186.869H734.093L734.681 186.228V201.919H732.27Z" fill="#B4774E"/>
<path d="M744.37 201.919L752.164 184.73H754.598L762.416 201.919H759.832L752.877 186.108H753.861L746.906 201.919H744.37ZM747.685 197.619L748.351 195.655H758.034L758.747 197.619H747.685Z" fill="#B4774E"/>
<path d="M771.014 201.919H768.556V184.73H771.014V201.919ZM781.117 194.259H770.768V192.121H781.117V194.259ZM780.895 184.73H783.353V201.919H780.895V184.73Z" fill="#B4774E"/>
<path d="M791.885 201.919V184.73H794.319V197.99L804.494 184.73H806.755V201.919H804.344V188.683L794.146 201.919H791.885Z" fill="#B4774E"/>
<path d="M815.286 201.919V184.73H817.721V197.99L827.895 184.73H830.156V201.919H827.745V188.683L817.547 201.919H815.286Z" fill="#B4774E"/>
</g>
<defs>
<clipPath id="clip0_4_7">
<rect width="1195" height="556" fill="white"/>
</clipPath>
</defs>
</svg>
